<?xml version="1.0" encoding="utf-8"?>
<!-- Generator: Adobe Illustrator 19.2.1, SVG Export Plug-In . SVG Version: 6.00 Build 0)  -->
<svg version="1.1" id="layer" xmlns="http://www.w3.org/2000/svg" xmlns:xlink="http://www.w3.org/1999/xlink" x="0px" y="0px"
	 viewBox="0 0 652 652" style="enable-background:new 0 0 652 652;" xml:space="preserve">
<style type="text/css">
	.st0{fill:#ED1C24;}
	.st1{fill:#6D6E70;}
</style>
<polyline class="st0" points="20.4,271.3 60.9,293.3 20.5,317.3 60.8,342.1 20.5,363.4 60.8,363.4 100.8,341.7 63.9,317.4 
	101,292.9 61.4,271.4 20.4,271.3 "/>
<path class="st1" d="M106.4,311.7l30.4,0.1L108.6,297l-31.1,20.5l30.5,20.5l38.3-20.7h-34.7c0,0,0.5,11.9-4.4,8.6
	c-0.8-0.7-1-2.6-1-4.1L106.4,311.7"/>
<path class="st0" d="M163.1,312.9v-41.2h6.5c3.4,0,5.9,0.8,7.4,2.5c1.5,1.7,2.3,4.3,2.3,7.9c0,2.7-0.4,4.9-1.1,6.3
	c-0.8,1.5-2,2.6-3.6,3.2c1.9,0.5,3.2,1.5,4,3c0.8,1.5,1.3,3.6,1.3,6.4c0,4.1-0.8,7.1-2.4,9c-1.6,1.9-4.1,2.9-7.5,2.9H163.1
	 M167.8,289.3h1.7c1.7,0,3-0.5,3.9-1.5c0.8-1,1.2-2.6,1.2-4.8c0-2.3-0.4-3.9-1.1-4.9c-0.8-1-2.1-1.4-4-1.4h-1.7V289.3z M167.8,307.6
	h1.6c2.2,0,3.6-0.5,4.4-1.5c0.8-1,1.2-2.7,1.2-5.2c0-2.5-0.4-4.3-1.3-5.4c-0.9-1.1-2.3-1.7-4.3-1.7h-1.6V307.6z"/>
<path class="st0" d="M185.7,312.9l8.2-41.2h4.5l8.2,41.2h-4.8l-1.7-8.1h-8l-1.6,8.1H185.7 M196.2,282.3l-3.2,17.9h6.3L196.2,282.3z"
	/>
<path class="st0" d="M216.8,305.7c1.1,0.8,2.2,1.4,3.1,1.8c0.9,0.4,1.8,0.6,2.7,0.6c1.5,0,2.6-0.5,3.5-1.5c0.8-1,1.3-2.3,1.3-4
	c0-2.4-1.6-5.2-4.9-8.3c-0.4-0.4-0.7-0.7-0.9-0.8c-2.1-2-3.5-3.9-4.4-5.6c-0.8-1.7-1.3-3.7-1.3-5.8c0-3.1,0.8-5.7,2.5-7.8
	c1.7-2.1,3.8-3.1,6.3-3.1c1.1,0,2.1,0.2,3.2,0.4c1,0.3,2,0.8,3,1.4v5.6c-0.9-0.8-1.8-1.3-2.7-1.7c-0.9-0.4-1.7-0.5-2.6-0.5
	c-1.5,0-2.7,0.5-3.6,1.5c-0.9,1-1.4,2.4-1.4,4.1c0,2.4,1.7,5.2,5.2,8.4c0.3,0.3,0.6,0.5,0.7,0.7c2,1.9,3.4,3.7,4.3,5.5
	c0.8,1.8,1.3,3.7,1.3,6c0,3.2-0.9,5.8-2.6,7.8c-1.7,2-3.9,3.1-6.6,3.1c-1,0-2-0.2-3-0.5c-1-0.3-2-0.9-3.1-1.6V305.7"/>
<polyline class="st0" points="244.3,312.9 244.3,271.7 249,271.7 249,287.4 257.5,287.4 257.5,271.7 262.2,271.7 262.2,312.9 
	257.5,312.9 257.5,292.6 249,292.6 249,312.9 244.3,312.9 "/>
<path class="st0" d="M275.9,301.9v-30.2h4.6v30.6c0,2,0.4,3.4,1.1,4.4c0.8,0.9,1.9,1.4,3.5,1.4c1.5,0,2.7-0.5,3.4-1.4
	c0.8-0.9,1.1-2.4,1.1-4.4v-30.6h4.7v30.2c0,4-0.7,6.9-2.2,8.7c-1.5,1.8-3.8,2.8-7,2.8c-3.2,0-5.5-0.9-7-2.8
	C276.6,308.8,275.9,305.9,275.9,301.9"/>
<polyline class="st0" points="308,312.9 308,271.7 312.4,271.7 321.7,300.3 321.7,271.7 326.2,271.7 326.2,312.9 321.7,312.9 
	312.5,284.1 312.5,312.9 308,312.9 "/>
<path class="st0" d="M338.2,312.9v-41.2h6.3c4.8,0,8.1,1.5,10,4.6c1.9,3.1,2.9,8.4,2.9,16c0,7.6-1,12.9-2.9,16
	c-1.9,3.1-5.3,4.6-10,4.6H338.2 M343,307.6h2.4c2.6,0,4.5-1.1,5.6-3.4c1.1-2.3,1.6-6.3,1.6-12c0-5.7-0.5-9.7-1.6-12
	c-1.1-2.3-2.9-3.4-5.6-3.4H343V307.6z"/>
<polyline class="st0" points="370.2,312.9 370.2,271.7 374.9,271.7 374.9,287.4 383.4,287.4 383.4,271.7 388.1,271.7 388.1,312.9 
	383.4,312.9 383.4,292.6 374.9,292.6 374.9,312.9 370.2,312.9 "/>
<path class="st0" d="M399.3,312.9l8.2-41.2h4.4l8.2,41.2h-4.8l-1.7-8.1h-8l-1.6,8.1H399.3 M409.8,282.3l-3.2,17.9h6.3L409.8,282.3z"
	/>
<path class="st0" d="M436,292.8v20.1h-4.7v-41.2h5.7c3.8,0,6.5,0.8,8.1,2.5c1.6,1.7,2.4,4.4,2.4,8.3c0,3-0.6,5.4-1.7,7.1
	c-1.1,1.7-2.8,2.7-5,3l8.4,20.3h-5.1l-8.1-20.1H436 M436,289.6h1.5c1.9,0,3.3-0.5,4.1-1.6c0.8-1.1,1.2-2.9,1.2-5.6
	c0-2.2-0.4-3.7-1.1-4.6c-0.8-0.9-2.2-1.3-4.3-1.3H436V289.6z"/>
<path class="st0" d="M457.6,312.9l8.2-41.2h4.5l8.2,41.2h-4.8l-1.7-8.1h-8l-1.6,8.1H457.6 M468.1,282.3l-3.2,17.9h6.3L468.1,282.3z"
	/>
<path class="st0" d="M515.6,290.8c0.1,0.9,0.1,1.7,0.1,2.5c0,0.8,0,1.6,0,2.4c0,6-0.9,10.4-2.6,13.3c-1.7,2.9-4.4,4.3-8,4.3
	c-3.7,0-6.4-1.6-8.1-4.9c-1.7-3.3-2.5-8.6-2.5-16.1c0-7.6,0.8-13,2.5-16.2c1.7-3.2,4.4-4.9,8.2-4.9c2.7,0,4.9,0.7,6.5,2.2
	c1.6,1.4,2.8,3.6,3.4,6.5l-4.3,2.4c-0.3-2-1-3.5-1.9-4.5c-0.9-1-2.1-1.5-3.6-1.5c-2.1,0-3.6,1.1-4.5,3.4c-0.9,2.3-1.3,6.4-1.3,12.4
	c0,5.9,0.4,10.1,1.3,12.4c0.9,2.3,2.4,3.5,4.5,3.5c1.9,0,3.3-0.9,4.3-2.7c1-1.8,1.4-4.4,1.4-7.9c0-0.5,0-0.9,0-1.2
	c0-0.3,0-0.5,0-0.7h-5.2v-4.8H515.6"/>
<path class="st0" d="M527.8,292.8v20h-4.9v-41h6c3.9,0,6.7,0.8,8.4,2.5c1.7,1.6,2.5,4.4,2.5,8.2c0,3.1-0.6,5.4-1.7,7.1
	c-1.1,1.7-2.9,2.7-5.1,3l8.6,20.2h-5.3l-8.2-20H527.8 M527.8,289.6h1.6c2,0,3.4-0.5,4.2-1.6c0.8-1,1.2-2.9,1.2-5.6
	c0-2.2-0.4-3.8-1.2-4.6c-0.8-0.9-2.2-1.3-4.4-1.3h-1.4V289.6z"/>
<path class="st0" d="M548.6,292.3c0-7.5,0.8-12.9,2.4-16.2c1.6-3.3,4.3-4.9,7.9-4.9c3.6,0,6.3,1.6,7.9,4.9c1.6,3.3,2.4,8.6,2.4,16.2
	c0,7.5-0.8,12.9-2.4,16.1c-1.6,3.2-4.2,4.9-7.9,4.9c-3.7,0-6.3-1.6-7.9-4.9C549.4,305.2,548.6,299.8,548.6,292.3 M553.6,292.2
	c0,5.8,0.4,9.9,1.3,12.3c0.8,2.4,2.2,3.6,4.2,3.6c1.9,0,3.3-1.1,4.1-3.4c0.8-2.3,1.2-6.4,1.2-12.5c0-5.9-0.4-10-1.2-12.3
	c-0.8-2.3-2.2-3.5-4.1-3.5c-1.9,0-3.3,1.2-4.2,3.5C554,282.2,553.6,286.3,553.6,292.2"/>
<path class="st0" d="M576.4,301.9v-30.1h4.8v30.6c0,2,0.4,3.4,1.2,4.4c0.8,0.9,2,1.4,3.6,1.4c1.6,0,2.8-0.5,3.6-1.4
	c0.8-0.9,1.2-2.4,1.2-4.4v-30.6h4.9v30.1c0,4-0.8,6.9-2.3,8.7c-1.5,1.8-4,2.7-7.3,2.7c-3.3,0-5.8-0.9-7.3-2.7
	C577.1,308.7,576.4,305.8,576.4,301.9"/>
<path class="st0" d="M602.6,312.8v-41h6c2.2,0,3.9,0.2,5.2,0.5c1.3,0.4,2.3,0.9,3.2,1.8c1.1,1,1.9,2.3,2.5,3.9
	c0.6,1.6,0.9,3.4,0.9,5.4c0,3.7-1,6.6-2.9,8.5c-1.9,1.9-4.7,2.9-8.5,2.9c-0.4,0-0.7,0-0.9,0c-0.2,0-0.4,0-0.5-0.1v18.1H602.6
	 M607.5,289.8h1.8c2.2,0,3.8-0.5,4.7-1.6c0.9-1,1.4-2.7,1.4-5.1c0-2.3-0.5-3.9-1.5-5c-1-1-2.7-1.5-5-1.5h-1.5V289.8z"/>
<path class="st1" d="M180.2,347.1l-0.7-0.1c0-0.5,0.1-1,0.1-1.5c0-2.2-1.3-2.7-6.4-2.7c-2.2,0-2.6,0.1-2.8,0.9L168,352
	c5.9-0.1,5.9-0.1,7.5-3.3l0.6,0.2l-2.6,8.2l-0.6-0.2c0.1-0.5,0.3-1.3,0.3-2c0-1.5-1.2-1.6-1.8-1.6c-1.7,0-3.1-0.1-3.8-0.1l-2.2,7.8
	c-0.2,0.8-0.3,1.2-0.3,1.6c0,1.4,1.5,1.5,2.7,1.5v0.6h-8.8v-0.6c1.8-0.3,2.2-0.4,2.9-2.6l4.3-15.5c0.1-0.5,0.4-1.5,0.4-2.2
	c0-1.3-0.9-1.4-2.7-1.5v-0.6h17.4L180.2,347.1"/>
<path class="st1" d="M187.7,349.9c1.7,0,2.5,1.6,2.5,3.4c0,3.8-2.8,11-6.7,11c-1.7,0-2.8-1.3-2.8-3.3
	C180.7,356.9,183.8,349.9,187.7,349.9 M188,349.2c-5.1,0-10.3,5.6-10.3,10.8c0,2.9,1.6,5.1,5.3,5.1c5.3,0,10.1-6.4,10.1-10.7
	C193.1,352.1,192,349.2,188,349.2"/>
<path class="st1" d="M196.1,364.7l2.8-10.3c0.4-1.3,0.6-2.5,0.6-2.8c0-0.5-0.2-1-1.3-1c-0.4,0-0.8,0.1-1.2,0.2v-0.6
	c1.8-0.3,3.8-0.7,5.4-1l0.1,0.1l-1.7,7l0.1,0.1l0.3-0.7c1.2-2.3,3.8-6.4,6-6.4c0.8,0,1.7,0.5,1.7,1.7c0,1.8-1.3,1.8-1.6,1.8
	c-1.5,0-1-1.3-1.8-1.3c-1.1,0-3.2,3.9-3.4,4.4c-1.3,2.5-1.8,4.1-3.2,8.8H196.1"/>
<path class="st1" d="M227.7,350.8h-2.9l-3.1,11.7l0,0.3c0,0.3,0.2,0.6,0.6,0.6c0.7,0,1.9-1.6,2.8-2.8l0.5,0.2
	c-1.8,2.7-3.1,4.2-5,4.2c-0.7,0-1.7-0.4-1.7-1.4c0-0.5,0.7-2.7,0.8-3.2l2.5-9.7h-2.6c0-0.2,0-0.4,0.1-0.6c0.2-0.3,1.2-0.6,1.8-0.9
	c1.1-0.6,2.8-2.2,3.8-3.4c0.1-0.2,0.3-0.5,0.6-0.4c0.3-0.1,0.3,0.3,0.3,0.5l-1,3.6h2.8L227.7,350.8"/>
<path class="st1" d="M244.3,361c-1.3,1.8-2.7,4-5.1,4c-1.1,0-1.6-0.7-1.6-1.6c0-0.9,2.9-11,2.9-11.4c0-0.6-0.5-0.9-1-0.9
	c-1.7,0-4.7,4-5.4,4.9c-1.6,2.4-2.1,4.3-3.2,8.7h-2.6l4.6-17.6c0.4-1.5,0.9-3.5,0.9-4c0-0.4-0.3-0.9-1.4-0.9l-0.9,0v-0.6
	c1.8-0.2,3.7-0.5,5.5-0.9l0.2,0.2l-4.1,15.4l0.1,0.1c1.1-1.8,4.6-7.2,7.8-7.2c0.8,0,2.4,0.2,2.4,2.5c0,1.2-2.8,10.2-2.8,11
	c0,0.4,0.3,0.7,0.6,0.7c0.7,0,1.5-1.1,2.9-2.8L244.3,361"/>
<path class="st1" d="M250.7,355.9c1.3-3.1,3.7-5.8,5.6-5.8c0.9,0,1.2,0.7,1.2,1.4c0,0.3-0.2,4.5-7.4,6L250.7,355.9 M257.9,360.9
	c-1.8,1.4-3.2,2.6-5.1,2.6c-1.5,0-3.3-0.8-3.3-3.2c0-0.7,0.2-1.4,0.4-2.2l1-0.1c5.7-0.8,8.9-3.7,8.9-6.4c0-1.5-1.1-2.4-2.9-2.4
	c-4.9,0-10.4,5.9-10.4,10.9c0,2.2,1.1,4.9,4.8,4.9c3.5,0,6.7-3.2,7-3.8L257.9,360.9z"/>
<path class="st1" d="M281.9,343.9c0.1-0.7,0.3-1.5,1.7-1.5c3,0,3,2.6,3,3.4c0,1-0.4,3.6-1.5,5.1c-0.6,0.8-1.4,1.6-4,1.6
	c-0.5,0-0.8,0-1.3-0.1L281.9,343.9 M274.3,342.1c2.2,0.3,2.5,0.4,2.5,1.5c0,0.5-0.3,1.7-0.3,2l-4.3,15.8c-0.6,2.2-1.4,2.3-2.8,2.5
	v0.9h10.2v-0.9c-1.8-0.1-2.5-0.3-2.5-1.5c0-0.2,0.2-1.3,0.3-1.9l1.9-7c1.3,0.1,1.8,0.2,3.2,0.2c4.7,0,9.1-2.4,9.1-6.9
	c0-4.4-3.7-5.5-7.4-5.5h-10V342.1z"/>
<path class="st1" d="M299.9,349.6c1,0,1,0.9,1,1.2c0,1.8-0.9,5.1-5.5,6.4C296,354.6,297.7,349.6,299.9,349.6 M301.3,359.7
	c-0.9,1.3-2.1,3.2-4,3.2c-0.7,0-2.3-0.1-2.3-2.9c0-0.7,0.1-1.1,0.2-1.7c6.7-1,9-4.7,9-6.7c0-2.5-2.4-3.2-3.6-3.2
	c-5.7,0-10.1,6.5-10.1,11.3c0,3.9,2.9,5.4,5.3,5.4c3.8,0,5.6-3.1,6.7-4.8L301.3,359.7z"/>
<path class="st1" d="M315.6,349.5c0.9,0,1.7,0.5,1.7,2.2c0,2.6-2,12.4-5.4,12.4c-1.8,0-1.8-1.8-1.8-2.5
	C310.1,359.4,311.9,349.5,315.6,349.5 M316,348.5c-5.5,0-10,6-10,11.5c0,3.4,2.7,5.2,5.6,5.2c5.6,0,9.9-6,9.9-11.3
	C321.5,349.2,317.3,348.5,316,348.5"/>
<path class="st1" d="M335.1,352.8c0,2.5-2.5,11.2-5.9,11.2c-0.5,0-1.4-0.2-1.4-1.4c0-0.9,1.7-7,2.6-8.7c0.6-1.3,2-2.9,3.3-2.9
	C334.4,351,335.1,351.6,335.1,352.8 M324.7,350.4c1.3,0,1.9,0.1,1.9,0.9c0,0.8-2.2,8.9-4.4,17.4c-0.6,2.2-1.3,2.2-2.5,2.2v1h8.7v-1
	c-1.2,0-2.3-0.1-2.3-1.2c0-0.8,1-4.2,1.3-5.4c1.1,0.6,1.5,0.8,2.4,0.8c4.9,0,9.6-6.8,9.6-12.3c0-3.2-1.8-4.4-3.9-4.4
	c-1.5,0-3.4,0.9-5.2,3.7l-0.1-0.1l1.2-3.6c-2.5,0.5-3.8,0.6-6.7,1V350.4z"/>
<path class="st1" d="M350,360.2c-1.5,2.4-3.1,4.8-5.9,4.8c-2.4,0-2.4-1.9-2.4-2.3c0-2.1,5-17.8,5-19.5c0-1.1-1.2-1.1-2.2-1v-0.9
	c2.8-0.3,4.5-0.5,7.3-1.1l-5.1,18.4c-0.2,0.8-0.8,2.8-0.8,3.5c0,0.5,0.5,0.5,0.5,0.5c0.8,0,2-1.8,2.7-2.8L350,360.2"/>
<path class="st1" d="M361.4,349.6c1,0,1,0.9,1,1.2c0,1.8-0.9,5.1-5.5,6.4C357.4,354.6,359.2,349.6,361.4,349.6 M362.8,359.7
	c-0.9,1.3-2.1,3.2-4,3.2c-0.7,0-2.3-0.1-2.3-2.9c0-0.7,0.1-1.1,0.2-1.7c6.7-1,9-4.7,9-6.7c0-2.5-2.4-3.2-3.6-3.2
	c-5.7,0-10.1,6.5-10.1,11.3c0,3.9,2.9,5.4,5.2,5.4c3.8,0,5.6-3.1,6.7-4.8L362.8,359.7z"/>
<path class="st1" d="M365.5,370.2c0.7-0.3,4.1-2.1,4.1-4.1c0-1.5-2.4-1.3-2.4-3.5c0-1.5,1-2.6,2.4-2.6c0.9,0,3,0.6,3,3.4
	c0,4.7-6.1,7.6-6.7,7.7L365.5,370.2"/>
<path class="st1" d="M396.2,349.7h3.2c0.9-3,2.7-8.8,7-8.8c2.5,0,3.1,1.6,3.1,2.3c0,0.7-0.6,1.4-1.4,1.4c-1.1,0-1.3-0.9-1.3-1.3
	c0-0.8,0.3-0.8,0.3-1.2c0-0.3-0.3-0.4-0.8-0.4c-2.9,0-3.9,6.2-4.2,8h3.8l-0.2,1.1h-3.8l-2.5,11.2c-1,4.3-2.9,9.9-7,9.9
	c-1.1,0-2.5-0.5-2.7-2.1c0-0.1,0-1.4,1.3-1.5c0.5,0,1.4,0.4,1.4,1.3c0,0.6-0.3,0.6-0.3,1c0,0.3,0.2,0.6,0.7,0.6
	c2.2,0,3.1-4.3,3.4-5.7l3.1-14.8H396L396.2,349.7"/>
<path class="st1" d="M415.8,349.9c1.7,0,2.4,1.6,2.4,3.4c0,3.8-2.8,11-6.7,11c-1.7,0-2.8-1.3-2.8-3.3
	C408.7,356.9,411.9,349.9,415.8,349.9 M416,349.2c-5.1,0-10.3,5.6-10.3,10.8c0,2.9,1.6,5.1,5.3,5.1c5.3,0,10.1-6.4,10.1-10.7
	C421.1,352.1,420.1,349.2,416,349.2"/>
<path class="st1" d="M424.2,364.7l2.8-10.3c0.4-1.3,0.6-2.5,0.6-2.8c0-0.5-0.2-1-1.2-1c-0.4,0-0.8,0.1-1.2,0.2v-0.6
	c1.8-0.3,3.8-0.7,5.4-1l0.1,0.1l-1.7,7l0.1,0.1l0.3-0.7c1.2-2.3,3.8-6.4,6-6.4c0.8,0,1.7,0.5,1.7,1.7c0,1.8-1.2,1.8-1.6,1.8
	c-1.5,0-1-1.3-1.8-1.3c-1.1,0-3.2,3.9-3.5,4.4c-1.3,2.5-1.8,4.1-3.2,8.8H424.2"/>
<path class="st1" d="M455.7,350.8h-2.9l-3.1,11.7l0,0.3c0,0.3,0.2,0.6,0.6,0.6c0.7,0,1.9-1.6,2.8-2.8l0.5,0.2
	c-1.8,2.7-3.1,4.2-5,4.2c-0.7,0-1.7-0.4-1.7-1.4c0-0.5,0.7-2.7,0.8-3.2l2.5-9.7h-2.6c0-0.2,0-0.4,0.1-0.6c0.2-0.3,1.2-0.6,1.8-0.9
	c1.2-0.6,2.8-2.2,3.8-3.4c0.1-0.2,0.3-0.5,0.6-0.4c0.2-0.1,0.3,0.3,0.2,0.5l-1,3.6h2.8L455.7,350.8"/>
<path class="st1" d="M472.3,361c-1.3,1.8-2.8,4-5.1,4c-1.1,0-1.6-0.7-1.6-1.6c0-0.9,2.9-11,2.9-11.4c0-0.6-0.5-0.9-1-0.9
	c-1.7,0-4.7,4-5.4,4.9c-1.6,2.4-2.1,4.3-3.2,8.7h-2.6l4.6-17.6c0.4-1.5,0.9-3.5,0.9-4c0-0.4-0.3-0.9-1.4-0.9l-0.9,0v-0.6
	c1.8-0.2,3.7-0.5,5.5-0.9l0.2,0.2l-4.1,15.4l0.1,0.1c1.1-1.8,4.7-7.2,7.8-7.2c0.8,0,2.4,0.2,2.4,2.5c0,1.2-2.8,10.2-2.8,11
	c0,0.4,0.3,0.7,0.6,0.7c0.7,0,1.5-1.1,2.9-2.8L472.3,361"/>
<path class="st1" d="M478.7,355.9c1.3-3.1,3.7-5.8,5.5-5.8c0.9,0,1.2,0.7,1.2,1.4c0,0.3-0.2,4.5-7.4,6L478.7,355.9 M485.9,360.9
	c-1.7,1.4-3.2,2.6-5.1,2.6c-1.5,0-3.3-0.8-3.3-3.2c0-0.7,0.2-1.4,0.4-2.2l1-0.1c5.7-0.8,8.9-3.7,8.9-6.4c0-1.5-1.1-2.4-2.9-2.4
	c-4.9,0-10.4,5.9-10.4,10.9c0,2.2,1.1,4.9,4.8,4.9c3.5,0,6.7-3.2,7.1-3.8L485.9,360.9z"/>
<path class="st1" d="M520.2,348.9l-1.1-0.2c0.1-0.4,0.1-0.8,0.1-1.2c0-3.4-1.6-5.6-4.6-5.6c-5.6,0-9.7,9.1-9.7,15.3
	c0,6.3,4.5,6.3,5,6.3c2.8,0,5-0.9,7.5-4.1l1,0.8c-1.8,2.7-5,5.2-9.5,5.2c-4.5,0-9.5-2.7-9.5-9.1c0-7.8,5.8-15.6,14.3-15.6
	c3,0,4.9,1,5.8,1c0.8,0,1.1-0.4,1.4-1h1L520.2,348.9"/>
<path class="st1" d="M531.6,349.5c0.9,0,1.7,0.5,1.7,2.2c0,2.6-2,12.4-5.4,12.4c-1.8,0-1.8-1.8-1.8-2.5
	C526,359.4,527.8,349.5,531.6,349.5 M531.9,348.5c-5.5,0-10,6-10,11.5c0,3.4,2.7,5.2,5.6,5.2c5.6,0,9.9-6,9.9-11.3
	C537.4,349.2,533.2,348.5,531.9,348.5"/>
<path class="st1" d="M556.9,360.5c-0.7,1.2-2.6,4.5-5.5,4.5c-0.5,0-2.3,0-2.3-2c0-1.5,0.4-2.7,0.8-3.8l-0.1,0
	c-2.7,3.7-4.1,5.8-6.8,5.8c-2.7,0-2.7-1.9-2.7-2.7c0-2.4,2.6-8.8,2.6-10.8c0-0.9-0.8-0.9-2-1v-1c3.1-0.1,6.8-0.9,7.3-1l-3.3,10.8
	c-0.4,1.3-0.5,1.7-0.5,2.4c0,0.7,0.3,0.8,0.8,0.8c1.4,0,3.5-3.3,4-4.2c1.6-2.9,2.4-5.6,3.5-9.4h4.1c-0.7,2.5-3.6,11.9-3.6,13
	c0,0.6,0.4,0.7,0.5,0.7c0.8,0,2.2-2.1,2.5-2.6L556.9,360.5"/>
<path class="st1" d="M576.7,360.4c-1.1,1.9-2.8,4.6-5.5,4.6c-0.6,0-2.4,0-2.4-2.3c0-2.5,3.1-10.2,3.1-11c0-0.4-0.4-0.8-0.9-0.8
	c-0.9,0-4.4,1.7-7.5,13.7h-4.2c1.8-6.7,3.6-12.5,3.6-13.4c0-0.9-0.9-0.9-1.9-0.9v-1c0.8,0,4.2-0.3,7-0.9l-2.1,6.5l0.1,0.1
	c2.5-3.7,4.4-6.6,7.4-6.6c0.8,0,2.6,0.1,2.6,2.8c0,2.3-3,9.7-3,10.8c0,0.3,0.2,0.6,0.5,0.6c0.7,0,1.5-1.3,2.4-2.7L576.7,360.4"/>
<path class="st1" d="M589.1,350.4h-2.9c-1.2,4.3-3,10.4-3,11.6c0,0.4,0.5,0.5,0.5,0.5c0.9,0,2.2-2.1,2.7-2.8l0.8,0.5
	c-1.3,2-3,4.8-5.7,4.8c-2.5,0-2.5-2.1-2.5-2.3c0-1.4,1.7-6.7,3.2-12.3h-1.8v-1.2c1.4-0.5,4-1.6,6.4-5.3h1.2l-1.4,5.1h2.5V350.4"/>
<path class="st1" d="M590.2,349.5c3.6-0.3,4.6-0.4,7-1l-2,6.3l0.2,0.1c1-2.1,3.1-6.3,5.4-6.3c0.1,0,2,0,2,2.3c0,1.6-1,2.6-2.1,2.6
	c-1.2,0-1.6-1.3-2.1-1.3c-1,0-2.8,3.5-3.6,5.4c-0.9,2.4-1.3,4-2.4,7.3h-4.2c1.9-6.3,3.6-12.2,3.6-13.3c0-0.9-0.6-0.9-1.9-0.9V349.5"
	/>
<path class="st1" d="M603.7,349.3c2-0.2,3.9-0.5,5.2-0.8c0.7,1.7,1.8,6.8,2.3,9.7l0.4,2.5h0.1c1.5-3,2.9-5.8,2.9-7
	c0-1.6-1.9-1-1.9-3.3c0-0.9,0.8-2,1.9-2c1.1,0,2.2,1,2.2,2.2c0,4.1-4.5,11.4-4.8,11.9c-3.6,5.9-6.6,9.3-10.1,9.3
	c-1.3,0-2.1-1.2-2.1-2.1c0-0.6,0.5-1.9,1.9-1.9c0.5,0,1.5,0.4,1.8,0.6c0.2,0.2,1,0.6,1.4,0.6c0.9,0,3.2-2.2,3.2-4.2
	c0-1.7-1.3-8-1.6-9.3c-1.2-5.3-1.5-5.3-2.9-5.3V349.3"/>
</svg>
