<?xml version="1.0" encoding="utf-8"?>
<!-- Generator: Adobe Illustrator 19.2.1, SVG Export Plug-In . SVG Version: 6.00 Build 0)  -->
<svg version="1.1" id="layer" xmlns="http://www.w3.org/2000/svg" xmlns:xlink="http://www.w3.org/1999/xlink" x="0px" y="0px"
	 viewBox="0 0 652 652" style="enable-background:new 0 0 652 652;" xml:space="preserve">
<style type="text/css">
	.st0{fill:#005DAA;}
</style>
<path class="st0" d="M584.1,262h3.9l-2.1-1.3l-3.4-1.1l-3.7-2.2l-1-0.2h-7C575.4,258.1,579.9,259.8,584.1,262"/>
<polygon class="st0" points="107.5,257.2 107.5,262 215.2,262 211.9,257.2 "/>
<polygon class="st0" points="336,257.2 334.9,262 365.1,262 364.4,257.2 "/>
<polygon class="st0" points="466.7,257.2 465.8,257.3 458.7,260.7 456.1,262 513.7,262 513.7,257.3 513.7,257.2 "/>
<polygon class="st0" points="20.3,257.2 20.3,262 100.1,262 97.4,259.6 94.4,257.3 93.8,257.2 "/>
<polygon class="st0" points="384.7,257.2 383.6,262 414.3,262 413.1,257.2 "/>
<path class="st0" d="M533.2,262h5c4.2-2.3,8.7-3.9,13.3-4.9h-3.7l-9.7,2.4L533.2,262z"/>
<polygon class="st0" points="263.7,257.2 260.3,262 315.5,262 315.5,257.2 "/>
<path class="st0" d="M570.8,257.2h-19.3c-4.7,1-9.1,2.6-13.3,4.9h45.9C579.9,259.8,575.4,258.1,570.8,257.2"/>
<polygon class="st0" points="20.3,267.6 20.3,272.5 106.8,272.5 106.4,271.2 104.5,268.2 104.1,267.6 "/>
<path class="st0" d="M520,272.5h4.4c1.7-1.7,3.4-3.4,5.3-4.9h-4.5l-2.2,2.4L520,272.5z"/>
<polygon class="st0" points="107.5,267.6 107.5,272.5 222.4,272.5 219.1,267.6 "/>
<polygon class="st0" points="333.5,267.6 332.4,272.5 366.8,272.5 366,267.6 "/>
<path class="st0" d="M597.8,272.5h6l-4.5-2.4l-2.4-2.4h-4.4C594.4,269.1,596.1,270.8,597.8,272.5"/>
<polygon class="st0" points="256.2,267.6 252.7,272.5 315.5,272.5 315.5,267.6 "/>
<polygon class="st0" points="382.4,267.6 381.4,272.5 416.8,272.5 415.6,267.6 "/>
<polygon class="st0" points="447.1,267.6 446.4,268.2 443,271.2 442.3,272.5 513.7,272.5 513.7,268.2 513.7,267.6 "/>
<path class="st0" d="M524.4,272.5h73.4c-1.7-1.7-3.4-3.4-5.3-4.9h-62.8C527.9,269.1,526.1,270.8,524.4,272.5"/>
<rect x="289.6" y="277.7" class="st0" width="25.8" height="4.9"/>
<polygon class="st0" points="20.3,277.7 20.3,282.6 229.4,282.6 226.1,277.7 "/>
<path class="st0" d="M605.7,282.6h6.7l-2.9-4.9h-7.2C603.5,279.3,604.7,280.9,605.7,282.6"/>
<polygon class="st0" points="380.3,277.7 379.3,282.6 419.3,282.6 418.1,277.7 "/>
<path class="st0" d="M513.7,280.2v-2.4h-75.3l-1,1.7l-1.8,3.2h80.9c1.1-1.7,2.2-3.3,3.4-4.9h-6.2V280.2z"/>
<polygon class="st0" points="331.2,277.7 330,282.6 368.4,282.6 367.6,277.7 "/>
<polygon class="st0" points="249,277.7 245.5,282.6 283.9,282.6 287.4,277.7 "/>
<path class="st0" d="M516.5,282.6h89.2c-1.1-1.7-2.2-3.3-3.4-4.9h-82.4C518.7,279.3,517.6,280.9,516.5,282.6"/>
<path class="st0" d="M472.4,292.7l5.2-2.8l0,0l0.1,0l8.2-1.9l0,0l0,0c0,0,0.9-0.1,2.3-0.2h-55.2l-1.8,4.9H472.4z"/>
<polygon class="st0" points="83.8,287.8 85,290.3 85.8,292.7 138.5,292.7 138.5,287.8 "/>
<polygon class="st0" points="198,287.8 201,292.7 236.4,292.7 233,287.8 "/>
<polygon class="st0" points="241.7,287.8 238.2,292.7 276.8,292.7 280.2,287.8 "/>
<rect x="289.6" y="287.8" class="st0" width="25.8" height="4.9"/>
<polygon class="st0" points="328.8,287.8 327.6,292.7 370,292.7 369.3,287.8 "/>
<rect x="20.3" y="287.8" class="st0" width="29.9" height="4.9"/>
<path class="st0" d="M509.5,290.5l-1.4,2.2h3.1c0.7-1.7,1.5-3.3,2.3-4.9h-2.7C510.5,288.6,509.6,290.4,509.5,290.5"/>
<polygon class="st0" points="378.1,287.8 377.1,292.7 421.7,292.7 420.5,287.8 "/>
<path class="st0" d="M611,292.7h4.5l-0.8-2.4l-0.3-2.4h-5.7C609.6,289.4,610.3,291,611,292.7"/>
<path class="st0" d="M581.1,292.7H611c-0.7-1.7-1.5-3.3-2.3-4.9H575C577.2,289.2,579.3,290.8,581.1,292.7"/>
<path class="st0" d="M539.3,292.7c1.9-1.9,3.9-3.5,6.1-4.9h-32c-0.8,1.6-1.6,3.2-2.3,4.9H539.3z"/>
<path class="st0" d="M507.6,303.5c0.4-1.6,0.9-3.3,1.4-4.9h-4.4l-1.6,4.9H507.6z"/>
<polygon class="st0" points="429,298.7 427.2,303.5 460.1,303.5 463.7,299 463.7,299 463.7,298.9 464.1,298.7 "/>
<rect x="289.6" y="298.7" class="st0" width="25.8" height="4.9"/>
<polygon class="st0" points="375.8,298.7 374.8,303.5 424.3,303.5 423.1,298.7 "/>
<polygon class="st0" points="326.2,298.7 325.1,303.5 371.8,303.5 371,298.7 "/>
<polygon class="st0" points="204.8,298.7 207.8,303.5 269.1,303.5 272.6,298.7 "/>
<polygon class="st0" points="85.3,298.7 85,299.2 83.5,303 82.5,303.5 138.5,303.5 138.5,298.7 "/>
<rect x="20.3" y="298.7" class="st0" width="29.9" height="4.9"/>
<path class="st0" d="M614.6,303.5h3.5l-1-4.9h-3.9C613.8,300.3,614.2,301.9,614.6,303.5"/>
<path class="st0" d="M588.6,303.5h26c-0.4-1.6-0.9-3.3-1.4-4.9h-27.3C586.9,300.2,587.8,301.8,588.6,303.5"/>
<path class="st0" d="M507.6,303.5h24.2c0.8-1.7,1.7-3.3,2.7-4.9H509C508.5,300.3,508,301.9,507.6,303.5"/>
<polygon class="st0" points="211.3,309.2 214.3,314 261.7,314 265.1,309.2 "/>
<path class="st0" d="M616.5,314h3.8v-3.9l-0.3-0.9h-4.1C616.1,310.8,616.3,312.4,616.5,314"/>
<rect x="289.6" y="309.1" class="st0" width="25.8" height="4.9"/>
<polygon class="st0" points="373.6,309.2 373.1,311.6 372.7,309.2 323.8,309.2 322.6,314 456,314 456.5,311.5 456.5,311.5 
	456.5,311.5 457.3,309.2 "/>
<rect x="109.3" y="309.1" class="st0" width="78.6" height="4.9"/>
<path class="st0" d="M499.5,314h6.3c0.2-1.6,0.4-3.3,0.7-4.9h-5.3L499.5,314z"/>
<polygon class="st0" points="20.3,309.2 20.3,314 104.6,314 108.6,309.2 "/>
<path class="st0" d="M505.8,314h22.8c0.3-1.7,0.7-3.3,1.2-4.9h-23.3C506.1,310.8,505.9,312.4,505.8,314"/>
<path class="st0" d="M591.9,314h24.6c-0.2-1.6-0.4-3.3-0.7-4.9h-25.1C591.2,310.7,591.6,312.3,591.9,314"/>
<polygon class="st0" points="217.8,319.6 219.3,322.1 217.5,324.5 257.7,324.5 256,322.1 257.7,319.6 "/>
<polygon class="st0" points="321.3,319.6 320.2,324.5 454.6,324.5 454.6,322.1 454.6,322 454.6,322 455,319.6 "/>
<path class="st0" d="M499.1,322.1v2.4h6.2c0-0.7,0-1.3,0-2c0-1,0-1.9,0.1-2.8h-6.2V322.1z"/>
<rect x="289.6" y="319.6" class="st0" width="25.8" height="4.9"/>
<path class="st0" d="M617,322.5c0,0.7,0,1.3,0,2h3.4v-3.9v-0.9h-3.4C616.9,320.6,617,321.5,617,322.5"/>
<rect x="109.3" y="319.6" class="st0" width="78.6" height="4.9"/>
<polygon class="st0" points="20.3,319.6 20.3,324.5 96.8,324.5 94.4,322.1 99,319.6 "/>
<path class="st0" d="M592.6,322c0,0.8-0.1,1.7-0.1,2.5h24.4c0-0.7,0-1.3,0-2c0-0.9,0-1.9-0.1-2.8h-24.4
	C592.5,320.4,592.6,321.2,592.6,322"/>
<path class="st0" d="M505.3,322.5c0,0.7,0,1.3,0,2H528c0-0.8-0.1-1.6-0.1-2.5c0-0.8,0.1-1.6,0.1-2.4h-22.6
	C505.3,320.6,505.3,321.5,505.3,322.5"/>
<polygon class="st0" points="213.3,330.1 209.6,335 264.8,335 261.5,330.1 "/>
<rect x="109.3" y="330.1" class="st0" width="78.6" height="4.9"/>
<polygon class="st0" points="20.3,330.1 20.3,335 106.8,335 102.4,330.1 "/>
<polygon class="st0" points="397.5,330.1 398.6,335 456.1,335 454.6,330.8 454.6,330.7 454.6,330.7 454.6,330.1 "/>
<rect x="289.6" y="330.1" class="st0" width="25.8" height="4.9"/>
<polygon class="st0" points="350.4,330.1 351.3,335 396.3,335 397.3,330.1 "/>
<path class="st0" d="M616,335h3.4l0.8-4.9h-3.6C616.4,331.7,616.2,333.4,616,335"/>
<polygon class="st0" points="318.8,330.1 317.7,335 349.3,335 350.1,330.1 "/>
<path class="st0" d="M499.1,330.6c0.1,0.3,0.6,2.5,1.1,4.4h6c-0.3-1.6-0.5-3.2-0.6-4.9h-6.5V330.6z"/>
<path class="st0" d="M590.7,335H616c0.3-1.6,0.5-3.2,0.6-4.9h-24.7C591.5,331.8,591.1,333.4,590.7,335"/>
<path class="st0" d="M506.3,335h23.5c-0.5-1.6-0.9-3.2-1.2-4.9h-22.9C505.8,331.7,506,333.4,506.3,335"/>
<polygon class="st0" points="352.4,340.2 353.4,345.1 394.2,345.1 395.2,340.2 "/>
<polygon class="st0" points="205.6,340.2 202,345.1 235.1,345.1 235.4,344.5 235.8,345.1 271.8,345.1 268.4,340.2 "/>
<polygon class="st0" points="399.9,340.2 401,345.1 461,345.1 458.4,341.7 458.4,341.7 458.4,341.6 457.9,340.2 "/>
<rect x="20.3" y="340.2" class="st0" width="29.9" height="4.9"/>
<polygon class="st0" points="83.2,340.2 83.5,340.4 85,342.6 85.8,345.1 138.5,345.1 138.5,340.2 "/>
<path class="st0" d="M613.6,345.1h2.7l0.2-0.6l1.9-4.1l0-0.2h-3.5C614.5,341.8,614.1,343.5,613.6,345.1"/>
<polygon class="st0" points="316.5,340.2 315.5,344.5 315.5,340.2 289.6,340.2 289.6,345.1 347.6,345.1 348.4,340.2 "/>
<path class="st0" d="M502.8,344.4l0.4,0.7h5.4c-0.5-1.6-0.9-3.2-1.3-4.9h-5.6L502.8,344.4z"/>
<path class="st0" d="M508.6,345.1h25.8c-1-1.5-1.9-3.2-2.7-4.9h-24.4C507.7,341.8,508.1,343.5,508.6,345.1"/>
<path class="st0" d="M586.1,345.1h27.6c0.5-1.6,0.9-3.2,1.3-4.9h-26.2C588,341.9,587,343.5,586.1,345.1"/>
<path class="st0" d="M609.3,355.9h1.8l2.8-4.9h-2.4C610.9,352.7,610.1,354.3,609.3,355.9"/>
<polygon class="st0" points="289.6,351 289.6,355.9 345.8,355.9 346.6,351 "/>
<polygon class="st0" points="85.3,351 85,351.6 83.5,355.3 82.6,355.9 138.5,355.9 138.5,351 "/>
<polygon class="st0" points="197.4,351 193.8,355.9 228.7,355.9 231.6,351 "/>
<rect x="20.3" y="351" class="st0" width="29.9" height="4.9"/>
<path class="st0" d="M506.4,351l0.2,0.4l3.3,4.5h3c-0.8-1.6-1.5-3.2-2.2-4.9H506.4z"/>
<polygon class="st0" points="402.4,351 403.5,355.9 476.6,355.9 470.6,353.8 470.5,353.8 470.5,353.8 467,351 "/>
<polygon class="st0" points="354.6,351 355.6,355.9 391.9,355.9 392.9,351 "/>
<polygon class="st0" points="240,351 243.5,355.9 279.2,355.9 275.9,351 "/>
<path class="st0" d="M575.4,355.9h33.9c0.8-1.6,1.5-3.2,2.2-4.9h-30.2C579.6,352.9,577.6,354.6,575.4,355.9"/>
<path class="st0" d="M539.1,351h-28.3c0.7,1.7,1.4,3.3,2.2,4.9H545C542.9,354.6,540.9,352.9,539.1,351"/>
<polygon class="st0" points="356.6,361.1 357.6,366 389.8,366 390.8,361.1 "/>
<polygon class="st0" points="20.3,361.1 20.3,366 222.8,366 225.6,361.1 "/>
<path class="st0" d="M603.2,366h2.1l2.8-4.9h-1.7C605.4,362.8,604.4,364.4,603.2,366"/>
<path class="st0" d="M439.3,365.1l0.8,0.9h79c-1.1-1.6-2.2-3.2-3.2-4.9H437L439.3,365.1z"/>
<polygon class="st0" points="404.7,361.1 405.9,366 437.3,366 436.1,361.1 "/>
<polygon class="st0" points="247.2,361.1 250.6,366 286.2,366 282.8,361.1 "/>
<polygon class="st0" points="289.6,361.1 289.6,366 344.1,366 344.9,361.1 "/>
<path class="st0" d="M519,366h84.2c1.1-1.6,2.2-3.2,3.3-4.9h-90.7C516.8,362.8,517.9,364.4,519,366"/>
<path class="st0" d="M593.1,376.8l3.2-2.3l2.4-2.4h-0.6C596.6,373.7,594.9,375.3,593.1,376.8"/>
<polygon class="st0" points="109.3,372 109.3,376.9 216.4,376.9 219.2,372 "/>
<polygon class="st0" points="358.8,372 359.8,376.9 387.6,376.9 388.6,372 "/>
<path class="st0" d="M523.4,372.6l3.4,2.2c-0.9-0.9-1.9-1.8-2.8-2.8h-1.1L523.4,372.6z"/>
<polygon class="st0" points="407.3,372 408.4,376.9 440,376.9 438.8,372 "/>
<polygon class="st0" points="443.6,372 444.9,374.1 447.3,376.9 519.3,376.9 519.3,372 "/>
<polygon class="st0" points="20.3,372 20.3,376.9 106.7,376.9 107.5,374.4 108.3,372 "/>
<polygon class="st0" points="254.8,372 258.2,376.9 342.2,376.9 343,372 "/>
<path class="st0" d="M526.8,374.7l3.2,2.1h63l0.1-0.1c1.8-1.5,3.5-3.1,5.1-4.8H524C524.9,372.9,525.8,373.9,526.8,374.7"/>
<polygon class="st0" points="262.2,382.5 265.6,387.3 340.4,387.3 341.3,382.5 "/>
<path class="st0" d="M581.9,384l2.1-0.6l1.3-0.9h-0.4C583.9,383,582.9,383.5,581.9,384"/>
<polygon class="st0" points="452.3,382.5 453.1,383.4 456.9,384.9 462.1,386.4 463.8,387.3 519.3,387.3 519.3,382.5 "/>
<polygon class="st0" points="360.9,382.5 361.9,387.3 385.4,387.3 386.4,382.5 "/>
<polygon class="st0" points="109.3,382.5 109.3,387.3 210.2,387.3 213.1,382.5 "/>
<polygon class="st0" points="409.7,382.5 410.8,387.3 442.6,387.3 441.4,382.5 "/>
<polygon class="st0" points="20.3,382.5 20.3,387.3 92.8,387.3 94.4,386.4 97.4,384.9 100.7,383.4 101.2,382.5 "/>
<path class="st0" d="M558.2,387.1l15.3-0.7l8.4-2.4c1-0.5,2-1,3-1.5h-45.1l5.4,2.4L558.2,387.1z"/>
</svg>
